<?xml version="1.0" standalone="no"?><!DOCTYPE svg PUBLIC "-//W3C//DTD SVG 1.1//EN" "http://www.w3.org/Graphics/SVG/1.1/DTD/svg11.dtd"><svg t="1567588075639" class="icon" viewBox="0 0 1024 1024" version="1.1" xmlns="http://www.w3.org/2000/svg" p-id="832" data-spm-anchor-id="a313x.7781069.0.i1" xmlns:xlink="http://www.w3.org/1999/xlink" width="200" height="200"><defs><style type="text/css"></style></defs><path d="M529.3 507.2c-6.3 0-12.5-2.4-17.3-7.2-9.6-9.6-9.6-25.1 0-34.6l80.7-80.7c9.6-9.6 25.1-9.6 34.6 0 9.6 9.6 9.6 25.1 0 34.6L546.6 500c-4.7 4.8-11 7.2-17.3 7.2z" fill="#E73F32" p-id="833"></path><path d="M562.3 824.4h-2c-18-0.8-33-12.5-38.2-29.7L451 561l-233.7-71.1c-17.2-5.2-28.9-20.2-29.7-38.2-0.8-18 9.4-34 26.1-40.8L745 194.6c20.8-8.4 44.5-3.7 60.3 12.2 15.9 15.9 20.6 39.5 12.2 60.3L601.1 798.3c-6.5 16-21.6 26.1-38.8 26.1zM250.7 448.8L469 515.2c13.4 4.1 23.9 14.5 27.9 27.9l66.4 218.2L772 248.6c1.4-3.4 0-5.7-1.4-7.1-1.4-1.4-3.8-2.8-7.2-1.4L250.7 448.8z" fill="#1A1A1A" p-id="834"></path></svg>